<?xml version="1.0" encoding="UTF-8" standalone="no" ?>
<!DOCTYPE svg PUBLIC "-//W3C//DTD SVG 1.1//EN" "http://www.w3.org/Graphics/SVG/1.1/DTD/svg11.dtd">
<svg xmlns="http://www.w3.org/2000/svg" xmlns:xlink="http://www.w3.org/1999/xlink" version="1.1" width="1280" height="588.9046837474151" viewBox="0 0 1280 588.9046837474151" xml:space="preserve">
<desc>Created with Fabric.js 5.3.0</desc>
<defs>
</defs>
<g transform="matrix(1 0 0 1 640 294.45234187370755)" id="background-logo"  >
<rect style="stroke: none; stroke-width: 0; stroke-dasharray: none; stroke-linecap: butt; stroke-dashoffset: 0; stroke-linejoin: miter; stroke-miterlimit: 4; fill: rgb(255,255,255); fill-opacity: 0; fill-rule: nonzero; opacity: 1;"  paint-order="stroke"  x="-703.113360428636" y="-562.4906883429088" rx="0" ry="0" width="1406.226720857272" height="1124.9813766858176" />
</g>
<g transform="matrix(2.163425724395803 0 0 2.163425724395803 640.0960142155731 217.2875621450852)" id="logo-logo"  >
<g style=""  paint-order="stroke"   >
		<g transform="matrix(0.1301866550846734 0.037330422632903516 -0.037330422632903516 0.1301866550846734 104.49471683662011 -35.57866629522414)"  >
<g style=""  paint-order="stroke"   >
		<g transform="matrix(1 0 0 1 0 0)"  >
<linearGradient id="SVGID_2_102575" gradientUnits="userSpaceOnUse" gradientTransform="matrix(1 0 0 1 0.00003144081065897808 0)"  x1="0" y1="8.608665360202679" x2="265.5653385591893" y2="291.3913346397973">
<stop offset="1.5%" style="stop-color:rgb(234,132,206);stop-opacity: 1"/>
<stop offset="52.5%" style="stop-color:rgb(250,153,224);stop-opacity: 1"/>
<stop offset="98%" style="stop-color:rgb(251,200,239);stop-opacity: 1"/>
</linearGradient>
<path style="stroke: none; stroke-width: 1; stroke-dasharray: none; stroke-linecap: butt; stroke-dashoffset: 0; stroke-linejoin: miter; stroke-miterlimit: 4; fill: url(#SVGID_2_102575); fill-rule: nonzero; opacity: 1;"  paint-order="stroke"  transform=" translate(-132.7827007204053, -150)" d="M 79.98114 50.56616 C 18.32744 88.77026 -4.12433 155.55371 0.61087 222.72913 L 0.80078 224.08984999999998 C 23.31258 129.6626 94.21918000000001 69.19044 168.75891000000001 50.46167999999997 C 113.30748 76.27722 -1.81802 157.81677 20.77091 300 C 21.04003 287.28906 24.11496 274.75818 30.35406 263.64258 C 40.68065 245.245 58.64551 231.52246000000002 76.90554 221.57349 C 102.48836 207.63465 130.19765 196.55982 154.21439 179.90796 C 176.59769 164.38831 190.05347 142.20191 198.71146000000002 116.68384 C 212.92505 74.79199 217.61874 17.43079 265.56537 0 C 198.83618 4.77063 129.88524 19.64307 79.98114 50.56616 z" stroke-linecap="round" />
</g>
		<g transform="matrix(1 0 0 1 -18.1314557204053 -16.371520000000004)"  >
<linearGradient id="SVGID_3_102579" gradientUnits="userSpaceOnUse" gradientTransform="matrix(1 0 0 1 10.228670000000008 26.305059999999983)"  x1="0" y1="1.4504225000000304" x2="208.84515" y2="213.1964175">
<stop offset="1.5%" style="stop-color:rgb(234,132,206);stop-opacity: 1"/>
<stop offset="52.5%" style="stop-color:rgb(250,153,224);stop-opacity: 1"/>
<stop offset="98%" style="stop-color:rgb(251,200,239);stop-opacity: 1"/>
</linearGradient>
<path style="stroke: none; stroke-width: 1; stroke-dasharray: none; stroke-linecap: butt; stroke-dashoffset: 0; stroke-linejoin: miter; stroke-miterlimit: 4; fill: url(#SVGID_3_102579); fill-rule: nonzero; opacity: 1;"  paint-order="stroke"  transform=" translate(-114.651245, -133.62848)" d="M 189.34949 109.25122 C 170.81452000000002 195.49231 89.63292 191.95288 34.42591999999999 240.95190000000002 C 65.80745999999999 203.27880000000002 117.7948 193.67602000000002 154.58429 163.13147000000004 C 170.92238 148.75525 181.33438 129.26331 189.34949 109.25122 z M 197.84155 80.6886 C 206.14883 63.309569999999994 212.21881000000002 44.29955999999999 219.07382 26.30505999999999 C 206.61923 41.63647 200.24753 61.28186 197.84155 80.6886 z M 94.90573 77.7782 C 54.83823 98.28125 21.794540000000012 135.45239 10.228670000000008 179.36426 C 25.76956 137.04285 57.18239 101.8988 94.90573 77.7782 z" stroke-linecap="round" />
</g>
</g>
</g>
		<g transform="matrix(0 -0.19594783870425173 0.10651316449415583 0 -42.40331600421075 -12.822836242836786)"  >
<g style=""  paint-order="stroke"   >
		<g transform="matrix(1 0 0 1 0 0)"  >
<linearGradient id="SVGID_4_102583" gradientUnits="userSpaceOnUse" gradientTransform="matrix(1 0 0 1 -100 -86)"  x1="0" y1="86" x2="200" y2="86">
<stop offset="32.5%" style="stop-color:rgb(233,31,200);stop-opacity: 1"/>
<stop offset="73%" style="stop-color:rgb(243,83,149);stop-opacity: 1"/>
<stop offset="96.5%" style="stop-color:rgb(255,160,231);stop-opacity: 1"/>
</linearGradient>
<polygon style="stroke: none; stroke-width: 1; stroke-dasharray: none; stroke-linecap: butt; stroke-dashoffset: 0; stroke-linejoin: miter; stroke-miterlimit: 4; fill: url(#SVGID_4_102583); fill-rule: nonzero; opacity: 1;"  paint-order="stroke"  points="0,-86 -100,86 100,86 0,-86 " />
</g>
</g>
</g>
		<g transform="matrix(0 -0.19594783870425173 -0.10651316449415583 0 42.403316004210865 -12.822836242836786)"  >
<g style=""  paint-order="stroke"   >
		<g transform="matrix(1 0 0 1 0 0)"  >
<linearGradient id="SVGID_4_102584" gradientUnits="userSpaceOnUse" gradientTransform="matrix(1 0 0 1 -100 -86)"  x1="0" y1="86" x2="200" y2="86">
<stop offset="32.5%" style="stop-color:rgb(233,31,200);stop-opacity: 1"/>
<stop offset="73%" style="stop-color:rgb(243,83,149);stop-opacity: 1"/>
<stop offset="96.5%" style="stop-color:rgb(255,160,231);stop-opacity: 1"/>
</linearGradient>
<polygon style="stroke: none; stroke-width: 1; stroke-dasharray: none; stroke-linecap: butt; stroke-dashoffset: 0; stroke-linejoin: miter; stroke-miterlimit: 4; fill: url(#SVGID_4_102584); fill-rule: nonzero; opacity: 1;"  paint-order="stroke"  points="0,-86 -100,86 100,86 0,-86 " />
</g>
</g>
</g>
		<g transform="matrix(0.8280695531339308 0 0 0.8280695531339308 5.684342e-14 -28.394751349856676)"  >
<g style=""  paint-order="stroke"   >
		<g transform="matrix(1 0 0 1 0 0)"  >
<linearGradient id="SVGID_6_102585" gradientUnits="userSpaceOnUse" gradientTransform="matrix(1 0 0 1 -1.2058476051710727 0.003440203527020458)"  x1="99.9921744805597" y1="0" x2="99.9921744805597" y2="173.99655979647298">
<stop offset="0%" style="stop-color:rgb(233,31,200);stop-opacity: 1"/>
<stop offset="33%" style="stop-color:rgb(255,160,231);stop-opacity: 1"/>
<stop offset="72.5%" style="stop-color:rgb(243,83,149);stop-opacity: 1"/>
<stop offset="100%" style="stop-color:rgb(233,31,200);stop-opacity: 1"/>
</linearGradient>
<path style="stroke: none; stroke-width: 1; stroke-dasharray: none; stroke-linecap: butt; stroke-dashoffset: 0; stroke-linejoin: miter; stroke-miterlimit: 4; fill: url(#SVGID_6_102585); fill-rule: nonzero; opacity: 1;"  paint-order="stroke"  transform=" translate(-98.78632687538862, -87.00172010176351)" d="M 98.8 174 C 159.4 121.5 208.89999999999998 83 197 37.80000000000001 C 186.5 -2 141.2 -18.6 98.8 29.3 C 56.4 -18.6 11.1 -2 0.6 37.8 C -11.4 83 38.1 121.5 98.8 174 z M 10.2 40.4 C 15.2 21.7 28.6 10 45.4 10 C 60.2 10 76.5 19.2 91.3 36 L 98.8 44.5 L 106.3 36 C 121.1 19.3 137.4 10 152.2 10 C 168.89999999999998 10 182.39999999999998 21.6 187.29999999999998 40.3 C 196.79999999999998 76.3 156.1 111.3 104.49999999999999 155.7 C 102.59999999999998 157.29999999999998 100.69999999999999 159 98.69999999999999 160.7 C 96.79999999999998 159 94.79999999999998 157.39999999999998 92.89999999999999 155.7 C 41.4 111.4 0.7 76.4 10.2 40.4 z" stroke-linecap="round" />
</g>
</g>
</g>
		<g transform="matrix(0.06517794643533582 0 0 0.1745014743068315 -39.70772191899982 -45.844898780539836)"  >
<g style=""  paint-order="stroke"   >
		<g transform="matrix(1 0 0 1 0 0)"  >
<linearGradient id="SVGID_7_102586" gradientUnits="userSpaceOnUse" gradientTransform="matrix(1 0 0 1 -100 -100)"  x1="100" y1="0" x2="100" y2="200">
<stop offset="8.5%" style="stop-color:rgb(255,160,231);stop-opacity: 1"/>
<stop offset="57.49999999999999%" style="stop-color:rgb(243,83,149);stop-opacity: 1"/>
<stop offset="89.5%" style="stop-color:rgb(233,31,200);stop-opacity: 1"/>
</linearGradient>
<rect style="stroke: none; stroke-width: 0; stroke-dasharray: none; stroke-linecap: butt; stroke-dashoffset: 0; stroke-linejoin: miter; stroke-miterlimit: 4; fill: url(#SVGID_7_102586); fill-rule: nonzero; opacity: 1;"  paint-order="stroke"  x="-100" y="-100" rx="0" ry="0" width="200" height="200" />
</g>
</g>
</g>
		<g transform="matrix(0.5719989588491632 0 0 0.333513260237604 5.684342e-14 -40.61311149691497)"  >
<g style=""  paint-order="stroke"   >
		<g transform="matrix(1 0 0 1 0 0)"  >
<linearGradient id="SVGID_8_102587" gradientUnits="userSpaceOnUse" gradientTransform="matrix(1 0 0 1 -125 -108.25319)"  x1="125.00000000000003" y1="0" x2="124.99999999999997" y2="216.50638">
<stop offset="25.499999999999996%" style="stop-color:rgb(255,160,231);stop-opacity: 1"/>
<stop offset="71.5%" style="stop-color:rgb(243,83,149);stop-opacity: 1"/>
<stop offset="100%" style="stop-color:rgb(233,31,200);stop-opacity: 1"/>
</linearGradient>
<polygon style="stroke: none; stroke-width: 1; stroke-dasharray: none; stroke-linecap: butt; stroke-dashoffset: 0; stroke-linejoin: miter; stroke-miterlimit: 4; fill: url(#SVGID_8_102587); fill-rule: nonzero; opacity: 1;"  paint-order="stroke"  points="0,-57.38463 95.63096999999999,108.25319 125,108.25319 0,-108.25319 -125,108.25319 -95.63102,108.25319 " />
</g>
</g>
</g>
		<g transform="matrix(0.47308203637489926 -0.3830942794477734 0.3830942794477736 0.4730820363748994 62.91273813557484 36.021025561325985)"  >
<g style=""  paint-order="stroke"   >
		<g transform="matrix(1 0 0 1 0 0)"  >
<linearGradient id="SVGID_9_102588" gradientUnits="userSpaceOnUse" gradientTransform="matrix(1 0 0 1 -280 1405.8056870014252)"  x1="45.03052155170563" y1="0" x2="204.96945674708428" y2="69.8778920919674">
<stop offset="1.5%" style="stop-color:rgb(234,132,206);stop-opacity: 1"/>
<stop offset="52.5%" style="stop-color:rgb(250,153,224);stop-opacity: 1"/>
<stop offset="98%" style="stop-color:rgb(251,200,239);stop-opacity: 1"/>
</linearGradient>
<path style="stroke: none; stroke-width: 1; stroke-dasharray: none; stroke-linecap: butt; stroke-dashoffset: 0; stroke-linejoin: miter; stroke-miterlimit: 4; fill: url(#SVGID_9_102588); fill-rule: nonzero; opacity: 1;"  paint-order="stroke"  transform=" translate(155.00001085060504, -1440.744633047409)" d="M -41.99096 1417.06201 C -44.71806 1416.6992200000002 -47.694520000000004 1416.64697 -50.82468 1417.00476 C -59.85913 1418.03638 -71.14031 1422.05249 -82.0493 1425.93616 C -90.87672 1429.07886 -99.28274 1432.07178 -105.68922 1433.19397 C -105.43412000000001 1432.3607200000001 -105.3306 1431.52979 -105.38151 1430.71301 C -105.49014000000001 1429.00342 -106.32889 1427.64074 -107.88918000000001 1426.52002 C -102.42733000000001 1424.75098 -91.76914000000001 1421.27539 -79.81332 1417.25183 C -63.6158 1411.80164 -48.00774 1408.16699 -41.99096 1417.06201 z M -79.62834 1407.68286 C -71.08618 1406.6816399999998 -66.94167999999999 1408.2028799999998 -65.00063999999999 1409.5541999999998 C -70.81441999999998 1410.7696499999997 -76.47424 1412.6713899999997 -80.85748 1414.1464899999999 C -96.30063 1419.3432699999998 -109.57424999999999 1423.6246399999998 -112.25228999999999 1424.4858499999998 C -115.54891999999998 1423.4315299999998 -120.03242999999999 1422.6589499999998 -125.71931999999998 1421.9628999999998 C -119.33161999999999 1420.2677099999999 -112.50247999999998 1417.7984699999997 -105.81193999999998 1415.3768399999997 C -96.09251 1411.85901 -86.91212 1408.5365 -79.62834 1407.68286 z M -128.56664 1410.63892 C -124.53418 1409.46863 -120.36482000000001 1408.25879 -116.27409 1407.2088700000002 C -104.60919 1404.2135100000003 -98.79332 1406.6657800000003 -96.26945 1408.5326000000002 C -99.70977 1409.6842100000001 -103.2806 1410.9759600000002 -106.92684 1412.2957800000001 C -117.54891 1416.1408700000002 -128.52967 1420.1128 -137.17054 1420.7539100000001 C -139.35620999999998 1420.54517 -141.65424 1420.3317900000002 -144.06752999999998 1420.10779 C -147.65256999999997 1419.77405 -151.47122999999996 1419.42053 -155.51161999999997 1419.02515 C -157.88472999999996 1418.79297 -160.19888999999998 1418.4580099999998 -162.46802999999997 1418.04993 C -150.33318 1416.95422 -139.31293 1413.75708 -128.56664 1410.63892 z M -34.17214 1430.82898 C -43.80504 1433.97742 -81.81795 1449.31702 -112.36153 1461.64246 C -122.73259 1465.82764 -131.68954 1469.44263 -138.10507 1472.0004900000001 C -155.74182000000002 1479.03589 -160.60917 1476.4979300000002 -192.28122000000002 1459.98511 C -197.73685000000003 1457.1405100000002 -203.92102000000003 1453.91577 -211.0979 1450.2559800000001 C -245.97714000000002 1432.4671600000001 -268.97449 1434.9135700000002 -280 1438.2191100000002 C -271.5589 1429.9647200000002 -254.25476 1414.9490900000003 -234.82323 1409.0047500000003 C -218.18767 1403.9174700000003 -203.75643 1408.8470400000003 -188.47841 1414.0667600000004 C -178.34435 1417.5284300000003 -167.86469 1421.1083900000003 -155.83062999999999 1422.2855100000004 C -151.78457999999998 1422.6819900000005 -147.96026999999998 1423.0367300000005 -144.37014 1423.3698600000005 C -130.45704999999998 1424.6610000000005 -118.60524999999998 1425.7629300000006 -112.68692999999999 1427.7800200000004 C -112.67112999999999 1427.7845400000003 -112.65659999999998 1427.7921000000003 -112.64061999999998 1427.7961300000004 C -111.12599999999999 1428.3162700000005 -109.99831999999998 1428.8961100000004 -109.33761999999999 1429.5568700000003 C -108.91734999999998 1429.9771600000004 -108.68260999999998 1430.4301600000003 -108.65205999999999 1430.9200300000005 C -108.58927999999999 1431.9116100000006 -109.01406999999999 1433.0513800000006 -109.86479999999999 1434.2098200000005 C -109.88459999999999 1434.2353300000004 -109.90382999999999 1434.2613300000005 -109.92192999999999 1434.2873300000006 C -110.16741999999999 1434.6142300000006 -110.44572 1434.9423600000005 -110.75738999999999 1435.2687800000006 C -114.79833999999998 1439.5098700000005 -125.34418999999998 1444.3744900000006 -141.76876 1444.1295000000005 C -163.70836999999997 1443.8019900000004 -170.34956999999997 1444.1182700000004 -170.62165 1444.1312100000005 C -171.52499 1444.1769900000004 -172.22072999999997 1444.9451700000004 -172.17547 1445.8491100000006 C -172.13078 1446.7535300000006 -171.36150999999998 1447.4493300000006 -170.45818 1447.4034300000005 C -170.39199 1447.4006200000006 -163.60201 1447.0804300000004 -141.81855 1447.4057500000006 C -124.35487999999998 1447.6658800000005 -113.09745999999998 1442.4744800000005 -108.38565 1437.5296500000006 C -108.15204 1437.2846500000007 -107.93201 1437.0386800000006 -107.72555 1436.7902700000006 C -100.70479 1436.0561400000006 -91.10016999999999 1432.6362200000005 -80.95084 1429.0234200000007 C -70.21549999999999 1425.2014000000006 -59.1142 1421.2498600000006 -50.452510000000004 1420.2593800000006 C -46.37313 1419.7933200000007 -42.646420000000006 1420.1088700000007 -39.51856000000001 1420.8642400000006 C -39.43495000000001 1420.8912200000007 -39.34989000000001 1420.9103800000005 -39.262530000000005 1420.9235700000006 C -34.016580000000005 1422.2442500000006 -30.525290000000005 1424.8138300000005 -30.045240000000007 1427.0120700000007 C -29.60797 1429.01611 -32.44354 1430.26343 -34.17214 1430.82898 z" stroke-linecap="round" />
</g>
</g>
</g>
		<g transform="matrix(-0.47308203637489943 -0.3830942794477734 -0.38309427944777347 0.47308203637489965 -62.91273813557484 36.021025561325985)"  >
<g style=""  paint-order="stroke"   >
		<g transform="matrix(1 0 0 1 0 0)"  >
<linearGradient id="SVGID_9_102589" gradientUnits="userSpaceOnUse" gradientTransform="matrix(1 0 0 1 -280 1405.8056870014252)"  x1="45.03052155170563" y1="0" x2="204.96945674708428" y2="69.8778920919674">
<stop offset="1.5%" style="stop-color:rgb(234,132,206);stop-opacity: 1"/>
<stop offset="52.5%" style="stop-color:rgb(250,153,224);stop-opacity: 1"/>
<stop offset="98%" style="stop-color:rgb(251,200,239);stop-opacity: 1"/>
</linearGradient>
<path style="stroke: none; stroke-width: 1; stroke-dasharray: none; stroke-linecap: butt; stroke-dashoffset: 0; stroke-linejoin: miter; stroke-miterlimit: 4; fill: url(#SVGID_9_102589); fill-rule: nonzero; opacity: 1;"  paint-order="stroke"  transform=" translate(155.00001085060504, -1440.744633047409)" d="M -41.99096 1417.06201 C -44.71806 1416.6992200000002 -47.694520000000004 1416.64697 -50.82468 1417.00476 C -59.85913 1418.03638 -71.14031 1422.05249 -82.0493 1425.93616 C -90.87672 1429.07886 -99.28274 1432.07178 -105.68922 1433.19397 C -105.43412000000001 1432.3607200000001 -105.3306 1431.52979 -105.38151 1430.71301 C -105.49014000000001 1429.00342 -106.32889 1427.64074 -107.88918000000001 1426.52002 C -102.42733000000001 1424.75098 -91.76914000000001 1421.27539 -79.81332 1417.25183 C -63.6158 1411.80164 -48.00774 1408.16699 -41.99096 1417.06201 z M -79.62834 1407.68286 C -71.08618 1406.6816399999998 -66.94167999999999 1408.2028799999998 -65.00063999999999 1409.5541999999998 C -70.81441999999998 1410.7696499999997 -76.47424 1412.6713899999997 -80.85748 1414.1464899999999 C -96.30063 1419.3432699999998 -109.57424999999999 1423.6246399999998 -112.25228999999999 1424.4858499999998 C -115.54891999999998 1423.4315299999998 -120.03242999999999 1422.6589499999998 -125.71931999999998 1421.9628999999998 C -119.33161999999999 1420.2677099999999 -112.50247999999998 1417.7984699999997 -105.81193999999998 1415.3768399999997 C -96.09251 1411.85901 -86.91212 1408.5365 -79.62834 1407.68286 z M -128.56664 1410.63892 C -124.53418 1409.46863 -120.36482000000001 1408.25879 -116.27409 1407.2088700000002 C -104.60919 1404.2135100000003 -98.79332 1406.6657800000003 -96.26945 1408.5326000000002 C -99.70977 1409.6842100000001 -103.2806 1410.9759600000002 -106.92684 1412.2957800000001 C -117.54891 1416.1408700000002 -128.52967 1420.1128 -137.17054 1420.7539100000001 C -139.35620999999998 1420.54517 -141.65424 1420.3317900000002 -144.06752999999998 1420.10779 C -147.65256999999997 1419.77405 -151.47122999999996 1419.42053 -155.51161999999997 1419.02515 C -157.88472999999996 1418.79297 -160.19888999999998 1418.4580099999998 -162.46802999999997 1418.04993 C -150.33318 1416.95422 -139.31293 1413.75708 -128.56664 1410.63892 z M -34.17214 1430.82898 C -43.80504 1433.97742 -81.81795 1449.31702 -112.36153 1461.64246 C -122.73259 1465.82764 -131.68954 1469.44263 -138.10507 1472.0004900000001 C -155.74182000000002 1479.03589 -160.60917 1476.4979300000002 -192.28122000000002 1459.98511 C -197.73685000000003 1457.1405100000002 -203.92102000000003 1453.91577 -211.0979 1450.2559800000001 C -245.97714000000002 1432.4671600000001 -268.97449 1434.9135700000002 -280 1438.2191100000002 C -271.5589 1429.9647200000002 -254.25476 1414.9490900000003 -234.82323 1409.0047500000003 C -218.18767 1403.9174700000003 -203.75643 1408.8470400000003 -188.47841 1414.0667600000004 C -178.34435 1417.5284300000003 -167.86469 1421.1083900000003 -155.83062999999999 1422.2855100000004 C -151.78457999999998 1422.6819900000005 -147.96026999999998 1423.0367300000005 -144.37014 1423.3698600000005 C -130.45704999999998 1424.6610000000005 -118.60524999999998 1425.7629300000006 -112.68692999999999 1427.7800200000004 C -112.67112999999999 1427.7845400000003 -112.65659999999998 1427.7921000000003 -112.64061999999998 1427.7961300000004 C -111.12599999999999 1428.3162700000005 -109.99831999999998 1428.8961100000004 -109.33761999999999 1429.5568700000003 C -108.91734999999998 1429.9771600000004 -108.68260999999998 1430.4301600000003 -108.65205999999999 1430.9200300000005 C -108.58927999999999 1431.9116100000006 -109.01406999999999 1433.0513800000006 -109.86479999999999 1434.2098200000005 C -109.88459999999999 1434.2353300000004 -109.90382999999999 1434.2613300000005 -109.92192999999999 1434.2873300000006 C -110.16741999999999 1434.6142300000006 -110.44572 1434.9423600000005 -110.75738999999999 1435.2687800000006 C -114.79833999999998 1439.5098700000005 -125.34418999999998 1444.3744900000006 -141.76876 1444.1295000000005 C -163.70836999999997 1443.8019900000004 -170.34956999999997 1444.1182700000004 -170.62165 1444.1312100000005 C -171.52499 1444.1769900000004 -172.22072999999997 1444.9451700000004 -172.17547 1445.8491100000006 C -172.13078 1446.7535300000006 -171.36150999999998 1447.4493300000006 -170.45818 1447.4034300000005 C -170.39199 1447.4006200000006 -163.60201 1447.0804300000004 -141.81855 1447.4057500000006 C -124.35487999999998 1447.6658800000005 -113.09745999999998 1442.4744800000005 -108.38565 1437.5296500000006 C -108.15204 1437.2846500000007 -107.93201 1437.0386800000006 -107.72555 1436.7902700000006 C -100.70479 1436.0561400000006 -91.10016999999999 1432.6362200000005 -80.95084 1429.0234200000007 C -70.21549999999999 1425.2014000000006 -59.1142 1421.2498600000006 -50.452510000000004 1420.2593800000006 C -46.37313 1419.7933200000007 -42.646420000000006 1420.1088700000007 -39.51856000000001 1420.8642400000006 C -39.43495000000001 1420.8912200000007 -39.34989000000001 1420.9103800000005 -39.262530000000005 1420.9235700000006 C -34.016580000000005 1422.2442500000006 -30.525290000000005 1424.8138300000005 -30.045240000000007 1427.0120700000007 C -29.60797 1429.01611 -32.44354 1430.26343 -34.17214 1430.82898 z" stroke-linecap="round" />
</g>
</g>
</g>
		<g transform="matrix(0.0611988615509344 0 0 0.061198861550934375 -8.436737066004468 -19.18137552817032)"  >
<g style=""  paint-order="stroke"   >
		<g transform="matrix(1 0 0 1 0 0)"  >
<rect style="stroke: none; stroke-width: 0; stroke-dasharray: none; stroke-linecap: butt; stroke-dashoffset: 0; stroke-linejoin: miter; stroke-miterlimit: 4; fill: rgb(254,159,230); fill-rule: nonzero; opacity: 1;"  paint-order="stroke"  x="-100" y="-100" rx="0" ry="0" width="200" height="200" />
</g>
</g>
</g>
		<g transform="matrix(0.0611988615509344 0 0 0.061198861550934375 8.436737066004468 -19.181375528170292)"  >
<g style=""  paint-order="stroke"   >
		<g transform="matrix(1 0 0 1 0 0)"  >
<rect style="stroke: none; stroke-width: 0; stroke-dasharray: none; stroke-linecap: butt; stroke-dashoffset: 0; stroke-linejoin: miter; stroke-miterlimit: 4; fill: rgb(254,159,230); fill-rule: nonzero; opacity: 1;"  paint-order="stroke"  x="-100" y="-100" rx="0" ry="0" width="200" height="200" />
</g>
</g>
</g>
		<g transform="matrix(-0.07488959702546645 -0.08030926055646771 -0.08030926055646764 0.07488959702546638 91.7973821277044 -70.90306135409651)"  >
<g style=""  paint-order="stroke"   >
		<g transform="matrix(1 0 0 1 0 0)"  >
<linearGradient id="SVGID_2_102576" gradientUnits="userSpaceOnUse" gradientTransform="matrix(1 0 0 1 0.00003144081065897808 0)"  x1="0" y1="8.608665360202679" x2="265.5653385591893" y2="291.3913346397973">
<stop offset="1.5%" style="stop-color:rgb(234,132,206);stop-opacity: 1"/>
<stop offset="52.5%" style="stop-color:rgb(250,153,224);stop-opacity: 1"/>
<stop offset="98%" style="stop-color:rgb(251,200,239);stop-opacity: 1"/>
</linearGradient>
<path style="stroke: none; stroke-width: 1; stroke-dasharray: none; stroke-linecap: butt; stroke-dashoffset: 0; stroke-linejoin: miter; stroke-miterlimit: 4; fill: url(#SVGID_2_102576); fill-rule: nonzero; opacity: 1;"  paint-order="stroke"  transform=" translate(-132.7827007204053, -150)" d="M 79.98114 50.56616 C 18.32744 88.77026 -4.12433 155.55371 0.61087 222.72913 L 0.80078 224.08984999999998 C 23.31258 129.6626 94.21918000000001 69.19044 168.75891000000001 50.46167999999997 C 113.30748 76.27722 -1.81802 157.81677 20.77091 300 C 21.04003 287.28906 24.11496 274.75818 30.35406 263.64258 C 40.68065 245.245 58.64551 231.52246000000002 76.90554 221.57349 C 102.48836 207.63465 130.19765 196.55982 154.21439 179.90796 C 176.59769 164.38831 190.05347 142.20191 198.71146000000002 116.68384 C 212.92505 74.79199 217.61874 17.43079 265.56537 0 C 198.83618 4.77063 129.88524 19.64307 79.98114 50.56616 z" stroke-linecap="round" />
</g>
		<g transform="matrix(1 0 0 1 -18.1314557204053 -16.371520000000004)"  >
<linearGradient id="SVGID_3_102580" gradientUnits="userSpaceOnUse" gradientTransform="matrix(1 0 0 1 10.228670000000008 26.305059999999983)"  x1="0" y1="1.4504225000000304" x2="208.84515" y2="213.1964175">
<stop offset="1.5%" style="stop-color:rgb(234,132,206);stop-opacity: 1"/>
<stop offset="52.5%" style="stop-color:rgb(250,153,224);stop-opacity: 1"/>
<stop offset="98%" style="stop-color:rgb(251,200,239);stop-opacity: 1"/>
</linearGradient>
<path style="stroke: none; stroke-width: 1; stroke-dasharray: none; stroke-linecap: butt; stroke-dashoffset: 0; stroke-linejoin: miter; stroke-miterlimit: 4; fill: url(#SVGID_3_102580); fill-rule: nonzero; opacity: 1;"  paint-order="stroke"  transform=" translate(-114.651245, -133.62848)" d="M 189.34949 109.25122 C 170.81452000000002 195.49231 89.63292 191.95288 34.42591999999999 240.95190000000002 C 65.80745999999999 203.27880000000002 117.7948 193.67602000000002 154.58429 163.13147000000004 C 170.92238 148.75525 181.33438 129.26331 189.34949 109.25122 z M 197.84155 80.6886 C 206.14883 63.309569999999994 212.21881000000002 44.29955999999999 219.07382 26.30505999999999 C 206.61923 41.63647 200.24753 61.28186 197.84155 80.6886 z M 94.90573 77.7782 C 54.83823 98.28125 21.794540000000012 135.45239 10.228670000000008 179.36426 C 25.76956 137.04285 57.18239 101.8988 94.90573 77.7782 z" stroke-linecap="round" />
</g>
</g>
</g>
		<g transform="matrix(-0.1302740660390306 0.037355487320730255 0.037355487320730296 0.13027406603903063 -104.47935047485038 -35.59510609417413)"  >
<g style=""  paint-order="stroke"   >
		<g transform="matrix(1 0 0 1 0 0)"  >
<linearGradient id="SVGID_2_102577" gradientUnits="userSpaceOnUse" gradientTransform="matrix(1 0 0 1 0.00003144081065897808 0)"  x1="0" y1="8.608665360202679" x2="265.5653385591893" y2="291.3913346397973">
<stop offset="1.5%" style="stop-color:rgb(234,132,206);stop-opacity: 1"/>
<stop offset="52.5%" style="stop-color:rgb(250,153,224);stop-opacity: 1"/>
<stop offset="98%" style="stop-color:rgb(251,200,239);stop-opacity: 1"/>
</linearGradient>
<path style="stroke: none; stroke-width: 1; stroke-dasharray: none; stroke-linecap: butt; stroke-dashoffset: 0; stroke-linejoin: miter; stroke-miterlimit: 4; fill: url(#SVGID_2_102577); fill-rule: nonzero; opacity: 1;"  paint-order="stroke"  transform=" translate(-132.7827007204053, -150)" d="M 79.98114 50.56616 C 18.32744 88.77026 -4.12433 155.55371 0.61087 222.72913 L 0.80078 224.08984999999998 C 23.31258 129.6626 94.21918000000001 69.19044 168.75891000000001 50.46167999999997 C 113.30748 76.27722 -1.81802 157.81677 20.77091 300 C 21.04003 287.28906 24.11496 274.75818 30.35406 263.64258 C 40.68065 245.245 58.64551 231.52246000000002 76.90554 221.57349 C 102.48836 207.63465 130.19765 196.55982 154.21439 179.90796 C 176.59769 164.38831 190.05347 142.20191 198.71146000000002 116.68384 C 212.92505 74.79199 217.61874 17.43079 265.56537 0 C 198.83618 4.77063 129.88524 19.64307 79.98114 50.56616 z" stroke-linecap="round" />
</g>
		<g transform="matrix(1 0 0 1 -18.1314557204053 -16.371520000000004)"  >
<linearGradient id="SVGID_3_102581" gradientUnits="userSpaceOnUse" gradientTransform="matrix(1 0 0 1 10.228670000000008 26.305059999999983)"  x1="0" y1="1.4504225000000304" x2="208.84515" y2="213.1964175">
<stop offset="1.5%" style="stop-color:rgb(234,132,206);stop-opacity: 1"/>
<stop offset="52.5%" style="stop-color:rgb(250,153,224);stop-opacity: 1"/>
<stop offset="98%" style="stop-color:rgb(251,200,239);stop-opacity: 1"/>
</linearGradient>
<path style="stroke: none; stroke-width: 1; stroke-dasharray: none; stroke-linecap: butt; stroke-dashoffset: 0; stroke-linejoin: miter; stroke-miterlimit: 4; fill: url(#SVGID_3_102581); fill-rule: nonzero; opacity: 1;"  paint-order="stroke"  transform=" translate(-114.651245, -133.62848)" d="M 189.34949 109.25122 C 170.81452000000002 195.49231 89.63292 191.95288 34.42591999999999 240.95190000000002 C 65.80745999999999 203.27880000000002 117.7948 193.67602000000002 154.58429 163.13147000000004 C 170.92238 148.75525 181.33438 129.26331 189.34949 109.25122 z M 197.84155 80.6886 C 206.14883 63.309569999999994 212.21881000000002 44.29955999999999 219.07382 26.30505999999999 C 206.61923 41.63647 200.24753 61.28186 197.84155 80.6886 z M 94.90573 77.7782 C 54.83823 98.28125 21.794540000000012 135.45239 10.228670000000008 179.36426 C 25.76956 137.04285 57.18239 101.8988 94.90573 77.7782 z" stroke-linecap="round" />
</g>
</g>
</g>
		<g transform="matrix(0.0749398799914369 -0.08036318243582163 0.08036318243582158 0.07493987999143689 -91.77349042096765 -70.94321893796217)"  >
<g style=""  paint-order="stroke"   >
		<g transform="matrix(1 0 0 1 0 0)"  >
<linearGradient id="SVGID_2_102578" gradientUnits="userSpaceOnUse" gradientTransform="matrix(1 0 0 1 0.00003144081065897808 0)"  x1="0" y1="8.608665360202679" x2="265.5653385591893" y2="291.3913346397973">
<stop offset="1.5%" style="stop-color:rgb(234,132,206);stop-opacity: 1"/>
<stop offset="52.5%" style="stop-color:rgb(250,153,224);stop-opacity: 1"/>
<stop offset="98%" style="stop-color:rgb(251,200,239);stop-opacity: 1"/>
</linearGradient>
<path style="stroke: none; stroke-width: 1; stroke-dasharray: none; stroke-linecap: butt; stroke-dashoffset: 0; stroke-linejoin: miter; stroke-miterlimit: 4; fill: url(#SVGID_2_102578); fill-rule: nonzero; opacity: 1;"  paint-order="stroke"  transform=" translate(-132.7827007204053, -150)" d="M 79.98114 50.56616 C 18.32744 88.77026 -4.12433 155.55371 0.61087 222.72913 L 0.80078 224.08984999999998 C 23.31258 129.6626 94.21918000000001 69.19044 168.75891000000001 50.46167999999997 C 113.30748 76.27722 -1.81802 157.81677 20.77091 300 C 21.04003 287.28906 24.11496 274.75818 30.35406 263.64258 C 40.68065 245.245 58.64551 231.52246000000002 76.90554 221.57349 C 102.48836 207.63465 130.19765 196.55982 154.21439 179.90796 C 176.59769 164.38831 190.05347 142.20191 198.71146000000002 116.68384 C 212.92505 74.79199 217.61874 17.43079 265.56537 0 C 198.83618 4.77063 129.88524 19.64307 79.98114 50.56616 z" stroke-linecap="round" />
</g>
		<g transform="matrix(1 0 0 1 -18.1314557204053 -16.371520000000004)"  >
<linearGradient id="SVGID_3_102582" gradientUnits="userSpaceOnUse" gradientTransform="matrix(1 0 0 1 10.228670000000008 26.305059999999983)"  x1="0" y1="1.4504225000000304" x2="208.84515" y2="213.1964175">
<stop offset="1.5%" style="stop-color:rgb(234,132,206);stop-opacity: 1"/>
<stop offset="52.5%" style="stop-color:rgb(250,153,224);stop-opacity: 1"/>
<stop offset="98%" style="stop-color:rgb(251,200,239);stop-opacity: 1"/>
</linearGradient>
<path style="stroke: none; stroke-width: 1; stroke-dasharray: none; stroke-linecap: butt; stroke-dashoffset: 0; stroke-linejoin: miter; stroke-miterlimit: 4; fill: url(#SVGID_3_102582); fill-rule: nonzero; opacity: 1;"  paint-order="stroke"  transform=" translate(-114.651245, -133.62848)" d="M 189.34949 109.25122 C 170.81452000000002 195.49231 89.63292 191.95288 34.42591999999999 240.95190000000002 C 65.80745999999999 203.27880000000002 117.7948 193.67602000000002 154.58429 163.13147000000004 C 170.92238 148.75525 181.33438 129.26331 189.34949 109.25122 z M 197.84155 80.6886 C 206.14883 63.309569999999994 212.21881000000002 44.29955999999999 219.07382 26.30505999999999 C 206.61923 41.63647 200.24753 61.28186 197.84155 80.6886 z M 94.90573 77.7782 C 54.83823 98.28125 21.794540000000012 135.45239 10.228670000000008 179.36426 C 25.76956 137.04285 57.18239 101.8988 94.90573 77.7782 z" stroke-linecap="round" />
</g>
</g>
</g>
		<g transform="matrix(0.0611988615509344 0 0 0.061198861550934375 -8.436737066004468 -3.0062952779378804)"  >
<g style=""  paint-order="stroke"   >
		<g transform="matrix(1 0 0 1 0 0)"  >
<rect style="stroke: none; stroke-width: 0; stroke-dasharray: none; stroke-linecap: butt; stroke-dashoffset: 0; stroke-linejoin: miter; stroke-miterlimit: 4; fill: rgb(254,159,230); fill-rule: nonzero; opacity: 1;"  paint-order="stroke"  x="-100" y="-100" rx="0" ry="0" width="200" height="200" />
</g>
</g>
</g>
		<g transform="matrix(0.0611988615509344 0 0 0.061198861550934375 8.436737066004468 -3.0062952779378804)"  >
<g style=""  paint-order="stroke"   >
		<g transform="matrix(1 0 0 1 0 0)"  >
<rect style="stroke: none; stroke-width: 0; stroke-dasharray: none; stroke-linecap: butt; stroke-dashoffset: 0; stroke-linejoin: miter; stroke-miterlimit: 4; fill: rgb(254,159,230); fill-rule: nonzero; opacity: 1;"  paint-order="stroke"  x="-100" y="-100" rx="0" ry="0" width="200" height="200" />
</g>
</g>
</g>
</g>
</g>
<g transform="matrix(2.163425724395803 0 0 2.163425724395803 640.1035862056083 578.0963343490452)" id="tagline-91da2132-c72f-406f-93cf-93b7cc35713e-logo"  >
<g style=""  paint-order="stroke"   >
		<g transform="matrix(1 0 0 1 0 0)" id="tagline-91da2132-c72f-406f-93cf-93b7cc35713e-logo-path-0"  >
<path style="stroke: none; stroke-width: 0; stroke-dasharray: none; stroke-linecap: butt; stroke-dashoffset: 0; stroke-linejoin: miter; stroke-miterlimit: 4; fill: rgb(244,92,158); fill-rule: nonzero; opacity: 1;"  paint-order="stroke"  transform=" translate(-296.155, 4.8999999999999995)" d="M 6.4 -7.78 C 6.4 -7.07 7.01 -6.59 7.73 -6.59 C 8.4 -6.59 9.02 -7.04 9.02 -7.92 C 9.02 -8.76 8.11 -9.94 5.22 -9.94 C 2.25 -9.94 0.28 -8.12 0.28 -4.91 C 0.28 -1.88 2.06 0.14 5.22 0.14 C 7.18 0.14 8.69 -0.67 9.49 -2.17 C 9.56 -2.3 9.52 -2.44 9.39 -2.52 C 9.27 -2.59 9.11 -2.53 9.03 -2.39 C 8.09 -0.9 6.71 -0.59 5.87 -0.59 C 4.12 -0.59 3.18 -2.13 2.95 -4.72 C 2.7 -7.45 3.75 -9.21 5.39 -9.21 C 7.11 -9.21 6.4 -8.5 6.4 -7.78 Z M 25.77 0 L 29.47 0 C 29.55 0 29.62 -0.06 29.62 -0.13 C 29.62 -0.2 29.58 -0.22 29.53 -0.27 C 29.11 -0.53 28.49 -1.25 28.27 -1.83 L 25.75 -8.62 C 25.48 -9.35 24.82 -9.8 24.05 -9.8 L 22.12 -9.8 C 22.01 -9.8 21.92 -9.72 21.92 -9.62 C 21.92 -9.49 21.98 -9.48 22.06 -9.41 C 22.26 -9.25 22.47 -9.04 22.69 -8.79 L 20.12 -1.83 C 19.89 -1.25 19.29 -0.53 18.87 -0.27 C 18.82 -0.22 18.76 -0.2 18.76 -0.13 C 18.76 -0.06 18.83 0 18.93 0 L 21.22 0 C 21.34 0 21.42 -0.1 21.42 -0.21 C 21.42 -0.34 21.36 -0.36 21.28 -0.43 C 20.75 -0.9 21.32 -2.09 21.69 -3.05 L 21.73 -3.15 L 25.26 -3.15 L 25.3 -3.05 C 25.66 -2.09 26.25 -0.9 25.72 -0.43 C 25.63 -0.36 25.58 -0.34 25.58 -0.21 C 25.58 -0.1 25.66 0 25.77 0 Z M 21.92 -3.71 L 23.45 -7.78 C 23.59 -7.55 23.73 -7.27 23.81 -7.04 L 25.06 -3.71 Z M 39.1 0 L 42.88 0 C 42.99 0 43.08 -0.1 43.08 -0.21 C 43.08 -0.34 43.02 -0.36 42.94 -0.43 C 42.41 -0.9 42.21 -2.23 42.21 -3.26 L 42.21 -4.21 L 42.32 -4.21 L 42.59 -4.21 C 43.95 -3.98 43.46 0.14 46.35 0.14 C 47.35 0.14 47.88 -0.6 47.88 -1.32 C 47.88 -2.03 47.45 -2.74 46.73 -2.74 C 46.12 -2.74 46.07 -2.3 45.67 -2.3 C 45.05 -2.3 44.56 -3.6 43.93 -4.35 C 45.81 -4.72 46.76 -5.75 46.76 -7 C 46.76 -8.54 45.29 -9.8 42.6 -9.8 L 39.09 -9.8 C 38.96 -9.8 38.86 -9.7 38.86 -9.59 C 38.86 -9.46 38.93 -9.44 39.02 -9.37 C 39.61 -8.9 39.83 -7.57 39.83 -6.54 L 39.83 -3.26 C 39.83 -2.23 39.62 -0.9 39.03 -0.43 C 38.95 -0.36 38.88 -0.34 38.88 -0.21 C 38.88 -0.1 38.98 0 39.1 0 Z M 42.21 -6.8 C 42.21 -7.9 42.36 -9.1 42.69 -9.1 C 43.85 -9.1 44.1 -8.13 44.1 -7 C 44.1 -5.87 43.68 -4.91 42.32 -4.91 L 42.21 -4.91 Z M 58.09 -6.54 L 58.09 -3.26 C 58.09 -2.23 57.88 -0.9 57.29 -0.43 C 57.2 -0.36 57.13 -0.34 57.13 -0.21 C 57.13 -0.1 57.23 0 57.36 0 L 61.21 0 C 61.33 0 61.43 -0.1 61.43 -0.21 C 61.43 -0.34 61.36 -0.36 61.28 -0.43 C 60.69 -0.9 60.47 -2.23 60.47 -3.26 L 60.47 -6.54 C 60.47 -7.57 60.68 -8.9 61.26 -9.37 C 61.35 -9.44 61.42 -9.46 61.42 -9.59 C 61.42 -9.7 61.32 -9.8 61.19 -9.8 L 57.34 -9.8 C 57.22 -9.8 57.12 -9.7 57.12 -9.59 C 57.12 -9.46 57.19 -9.44 57.27 -9.37 C 57.86 -8.9 58.09 -7.57 58.09 -6.54 Z M 71.64 -6.54 L 71.64 -3.26 C 71.64 -2.23 71.43 -0.9 70.84 -0.43 C 70.76 -0.36 70.69 -0.34 70.69 -0.21 C 70.69 -0.1 70.78 0 70.91 0 L 73.29 0 C 73.4 0 73.49 -0.1 73.49 -0.21 C 73.49 -0.34 73.43 -0.36 73.35 -0.43 C 72.81 -0.9 72.62 -2.23 72.62 -3.26 L 72.62 -7.29 L 76.64 -0.76 C 76.93 -0.27 77.43 0 77.99 0 L 80.08 0 C 80.21 0 80.3 -0.1 80.3 -0.21 C 80.3 -0.34 80.23 -0.36 80.15 -0.43 C 79.56 -0.9 79.34 -2.23 79.34 -3.26 L 79.34 -6.54 C 79.34 -7.57 79.55 -8.9 80.14 -9.37 C 80.22 -9.44 80.29 -9.46 80.29 -9.59 C 80.29 -9.7 80.19 -9.8 80.07 -9.8 L 77.69 -9.8 C 77.57 -9.8 77.49 -9.7 77.49 -9.59 C 77.49 -9.46 77.55 -9.44 77.63 -9.37 C 78.16 -8.9 78.36 -7.57 78.36 -6.54 L 78.36 -2.74 L 74.48 -9.04 C 74.19 -9.53 73.68 -9.8 73.12 -9.8 L 70.9 -9.8 C 70.77 -9.8 70.67 -9.7 70.67 -9.59 C 70.67 -9.46 70.74 -9.44 70.83 -9.37 C 71.41 -8.9 71.64 -7.57 71.64 -6.54 Z M 94.49 0.14 C 94.96 0.14 95.4 0.1 95.83 0 L 98.92 0 C 98.98 0 99.04 -0.06 99.04 -0.11 C 99.04 -0.17 98.98 -0.2 98.95 -0.22 C 98.66 -0.45 98.55 -1.12 98.55 -1.64 L 98.55 -3.26 C 98.55 -3.78 98.66 -4.45 98.95 -4.69 C 98.99 -4.72 99.02 -4.73 99.02 -4.8 C 99.02 -4.86 98.98 -4.9 98.91 -4.9 L 95.13 -4.9 C 94.95 -4.9 94.81 -4.8 94.81 -4.69 C 94.81 -4.56 94.91 -4.54 95.03 -4.47 C 95.86 -4 96.17 -2.67 96.17 -1.64 L 96.17 -1.61 C 96.17 -1.04 95.83 -0.59 95.13 -0.59 C 93.38 -0.59 92.44 -2.13 92.22 -4.72 C 91.97 -7.45 93.02 -9.21 94.65 -9.21 C 96.38 -9.21 95.66 -8.5 95.66 -7.78 C 95.66 -7.07 96.28 -6.59 96.99 -6.59 C 97.66 -6.59 98.28 -7.04 98.28 -7.92 C 98.28 -8.76 97.37 -9.94 94.49 -9.94 C 91.52 -9.94 89.54 -8.12 89.54 -4.91 C 89.54 -1.88 91.32 0.14 94.49 0.14 Z M 119.99 0 L 123.77 0 C 123.89 0 123.97 -0.1 123.97 -0.21 C 123.97 -0.34 123.91 -0.36 123.83 -0.43 C 123.3 -0.9 123.1 -2.23 123.1 -3.26 L 123.1 -4.55 L 124.1 -4.55 C 124.73 -4.55 125.52 -4.37 125.79 -3.84 C 125.83 -3.75 125.86 -3.7 125.93 -3.7 C 126 -3.7 126.06 -3.78 126.06 -3.89 L 126.06 -5.78 C 126.06 -5.89 126 -5.98 125.93 -5.98 C 125.86 -5.98 125.83 -5.92 125.79 -5.84 C 125.52 -5.31 124.73 -5.11 124.1 -5.11 L 123.1 -5.11 L 123.1 -6.8 C 123.1 -7.9 123.26 -9.1 123.58 -9.1 C 125.97 -9.1 125.73 -7.18 126.87 -7.18 C 127.67 -7.18 128.3 -7.77 128.3 -8.5 C 128.3 -9.21 127.67 -9.8 126.87 -9.8 L 119.98 -9.8 C 119.85 -9.8 119.76 -9.7 119.76 -9.59 C 119.76 -9.46 119.83 -9.44 119.91 -9.37 C 120.5 -8.9 120.72 -7.57 120.72 -6.54 L 120.72 -3.26 C 120.72 -2.23 120.51 -0.9 119.92 -0.43 C 119.84 -0.36 119.77 -0.34 119.77 -0.21 C 119.77 -0.1 119.87 0 119.99 0 Z M 142.06 0.14 C 145 0.14 146.94 -1.68 146.94 -4.91 C 146.94 -7.92 145.17 -9.94 142.06 -9.94 C 139.09 -9.94 137.12 -8.12 137.12 -4.91 C 137.12 -1.88 138.89 0.14 142.06 0.14 Z M 142.04 -0.57 C 140.59 -0.57 139.78 -2.31 139.78 -4.91 C 139.78 -7.66 140.69 -9.23 142.04 -9.23 C 143.47 -9.23 144.28 -7.49 144.28 -4.91 C 144.28 -2.14 143.4 -0.57 142.04 -0.57 Z M 156.42 0 L 160.2 0 C 160.31 0 160.4 -0.1 160.4 -0.21 C 160.4 -0.34 160.34 -0.36 160.26 -0.43 C 159.73 -0.9 159.53 -2.23 159.53 -3.26 L 159.53 -4.21 L 159.64 -4.21 L 159.91 -4.21 C 161.27 -3.98 160.78 0.14 163.67 0.14 C 164.67 0.14 165.2 -0.6 165.2 -1.32 C 165.2 -2.03 164.77 -2.74 164.05 -2.74 C 163.44 -2.74 163.39 -2.3 162.99 -2.3 C 162.37 -2.3 161.88 -3.6 161.25 -4.35 C 163.13 -4.72 164.08 -5.75 164.08 -7 C 164.08 -8.54 162.61 -9.8 159.92 -9.8 L 156.41 -9.8 C 156.28 -9.8 156.18 -9.7 156.18 -9.59 C 156.18 -9.46 156.25 -9.44 156.34 -9.37 C 156.93 -8.9 157.15 -7.57 157.15 -6.54 L 157.15 -3.26 C 157.15 -2.23 156.94 -0.9 156.35 -0.43 C 156.27 -0.36 156.2 -0.34 156.2 -0.21 C 156.2 -0.1 156.3 0 156.42 0 Z M 159.53 -6.8 C 159.53 -7.9 159.68 -9.1 160.01 -9.1 C 161.17 -9.1 161.42 -8.13 161.42 -7 C 161.42 -5.87 161 -4.91 159.64 -4.91 L 159.53 -4.91 Z M 189.74 -4.2 L 189.74 -3.26 C 189.74 -2.23 189.53 -0.9 188.94 -0.43 C 188.86 -0.36 188.79 -0.34 188.79 -0.21 C 188.79 -0.1 188.89 0 189.01 0 L 192.86 0 C 192.99 0 193.09 -0.1 193.09 -0.21 C 193.09 -0.34 193.02 -0.36 192.93 -0.43 C 192.35 -0.9 192.12 -2.23 192.12 -3.26 L 192.12 -4.2 L 194.64 -8.4 C 194.91 -8.85 195.64 -9.35 196.06 -9.59 C 196.11 -9.62 196.15 -9.63 196.15 -9.7 C 196.15 -9.76 196.08 -9.8 196 -9.8 L 193.63 -9.8 C 193.51 -9.8 193.41 -9.7 193.41 -9.59 C 193.41 -9.46 193.48 -9.44 193.56 -9.37 C 194.15 -8.9 193.21 -7.88 192.68 -7 L 191.77 -5.49 L 190.86 -7 C 190.33 -7.9 189.39 -8.9 189.98 -9.37 C 190.06 -9.44 190.13 -9.46 190.13 -9.59 C 190.13 -9.7 190.04 -9.8 189.91 -9.8 L 185.86 -9.8 C 185.78 -9.8 185.71 -9.76 185.71 -9.7 C 185.71 -9.63 185.75 -9.62 185.81 -9.59 C 186.23 -9.35 186.96 -8.85 187.22 -8.4 Z M 210.13 0.14 C 213.07 0.14 215.01 -1.68 215.01 -4.91 C 215.01 -7.92 213.23 -9.94 210.13 -9.94 C 207.16 -9.94 205.18 -8.12 205.18 -4.91 C 205.18 -1.88 206.96 0.14 210.13 0.14 Z M 210.11 -0.57 C 208.66 -0.57 207.84 -2.31 207.84 -4.91 C 207.84 -7.66 208.75 -9.23 210.11 -9.23 C 211.54 -9.23 212.35 -7.49 212.35 -4.91 C 212.35 -2.14 211.47 -0.57 210.11 -0.57 Z M 229.42 0.14 C 231.73 0.14 233.62 -1.37 233.62 -3.57 L 233.62 -6.54 C 233.62 -7.57 233.83 -8.9 234.42 -9.37 C 234.5 -9.44 234.57 -9.46 234.57 -9.59 C 234.57 -9.7 234.47 -9.8 234.35 -9.8 L 230.57 -9.8 C 230.45 -9.8 230.37 -9.7 230.37 -9.59 C 230.37 -9.46 230.43 -9.44 230.51 -9.37 C 231.04 -8.9 231.24 -7.57 231.24 -6.54 L 231.24 -2.44 C 231.24 -1.25 230.43 -0.56 229.42 -0.56 C 228.41 -0.56 227.6 -1.25 227.6 -2.44 L 227.6 -6.54 C 227.6 -7.57 227.79 -8.9 228.31 -9.37 C 228.4 -9.44 228.45 -9.46 228.45 -9.59 C 228.45 -9.7 228.37 -9.8 228.26 -9.8 L 224.48 -9.8 C 224.35 -9.8 224.25 -9.7 224.25 -9.59 C 224.25 -9.46 224.32 -9.44 224.41 -9.37 C 224.99 -8.9 225.22 -7.57 225.22 -6.54 L 225.22 -3.57 C 225.22 -1.37 227.11 0.14 229.42 0.14 Z M 244.05 0 L 247.83 0 C 247.94 0 248.02 -0.1 248.02 -0.21 C 248.02 -0.34 247.97 -0.36 247.88 -0.43 C 247.35 -0.9 247.16 -2.23 247.16 -3.26 L 247.16 -4.21 L 247.27 -4.21 L 247.53 -4.21 C 248.89 -3.98 248.4 0.14 251.3 0.14 C 252.29 0.14 252.83 -0.6 252.83 -1.32 C 252.83 -2.03 252.39 -2.74 251.68 -2.74 C 251.06 -2.74 251.02 -2.3 250.61 -2.3 C 250 -2.3 249.51 -3.6 248.88 -4.35 C 250.75 -4.72 251.71 -5.75 251.71 -7 C 251.71 -8.54 250.24 -9.8 247.55 -9.8 L 244.03 -9.8 C 243.91 -9.8 243.81 -9.7 243.81 -9.59 C 243.81 -9.46 243.88 -9.44 243.96 -9.37 C 244.55 -8.9 244.78 -7.57 244.78 -6.54 L 244.78 -3.26 C 244.78 -2.23 244.57 -0.9 243.98 -0.43 C 243.89 -0.36 243.82 -0.34 243.82 -0.21 C 243.82 -0.1 243.92 0 244.05 0 Z M 247.16 -6.8 C 247.16 -7.9 247.31 -9.1 247.63 -9.1 C 248.79 -9.1 249.05 -8.13 249.05 -7 C 249.05 -5.87 248.63 -4.91 247.27 -4.91 L 247.16 -4.91 Z M 273.78 0 L 277.56 0 C 277.68 0 277.76 -0.1 277.76 -0.21 C 277.76 -0.34 277.7 -0.36 277.62 -0.43 C 277.09 -0.9 276.89 -2.23 276.89 -3.26 L 276.89 -4.55 L 277.89 -4.55 C 278.52 -4.55 279.31 -4.37 279.58 -3.84 C 279.62 -3.75 279.65 -3.7 279.72 -3.7 C 279.79 -3.7 279.85 -3.78 279.85 -3.89 L 279.85 -5.78 C 279.85 -5.89 279.79 -5.98 279.72 -5.98 C 279.65 -5.98 279.62 -5.92 279.58 -5.84 C 279.31 -5.31 278.52 -5.11 277.89 -5.11 L 276.89 -5.11 L 276.89 -6.8 C 276.89 -7.9 277.05 -9.1 277.37 -9.1 C 279.76 -9.1 279.52 -7.18 280.66 -7.18 C 281.46 -7.18 282.09 -7.77 282.09 -8.5 C 282.09 -9.21 281.46 -9.8 280.66 -9.8 L 273.77 -9.8 C 273.64 -9.8 273.55 -9.7 273.55 -9.59 C 273.55 -9.46 273.62 -9.44 273.7 -9.37 C 274.29 -8.9 274.51 -7.57 274.51 -6.54 L 274.51 -3.26 C 274.51 -2.23 274.3 -0.9 273.71 -0.43 C 273.63 -0.36 273.56 -0.34 273.56 -0.21 C 273.56 -0.1 273.66 0 273.78 0 Z M 296.1 0 L 299.8 0 C 299.88 0 299.95 -0.06 299.95 -0.13 C 299.95 -0.2 299.91 -0.22 299.85 -0.27 C 299.43 -0.53 298.82 -1.25 298.59 -1.83 L 296.07 -8.62 C 295.81 -9.35 295.15 -9.8 294.38 -9.8 L 292.45 -9.8 C 292.33 -9.8 292.25 -9.72 292.25 -9.62 C 292.25 -9.49 292.31 -9.48 292.39 -9.41 C 292.59 -9.25 292.8 -9.04 293.02 -8.79 L 290.44 -1.83 C 290.22 -1.25 289.62 -0.53 289.2 -0.27 C 289.14 -0.22 289.09 -0.2 289.09 -0.13 C 289.09 -0.06 289.16 0 289.25 0 L 291.55 0 C 291.66 0 291.75 -0.1 291.75 -0.21 C 291.75 -0.34 291.69 -0.36 291.61 -0.43 C 291.07 -0.9 291.65 -2.09 292.01 -3.05 L 292.05 -3.15 L 295.58 -3.15 L 295.62 -3.05 C 295.99 -2.09 296.58 -0.9 296.04 -0.43 C 295.96 -0.36 295.9 -0.34 295.9 -0.21 C 295.9 -0.1 295.99 0 296.1 0 Z M 292.25 -3.71 L 293.78 -7.78 C 293.92 -7.55 294.06 -7.27 294.14 -7.04 L 295.39 -3.71 Z M 310.16 -6.54 L 310.16 -3.26 C 310.16 -2.23 309.95 -0.9 309.36 -0.43 C 309.27 -0.36 309.2 -0.34 309.2 -0.21 C 309.2 -0.1 309.3 0 309.43 0 L 311.81 0 C 311.92 0 312 -0.1 312 -0.21 C 312 -0.34 311.95 -0.36 311.86 -0.43 C 311.33 -0.9 311.14 -2.23 311.14 -3.26 L 311.14 -7.43 L 314.09 -0.32 C 314.17 -0.13 314.34 0 314.55 0 L 315.13 0 C 315.34 0 315.53 -0.14 315.6 -0.34 L 318.7 -8.34 L 318.7 -3.26 C 318.7 -2.23 318.49 -0.9 317.9 -0.43 C 317.81 -0.36 317.74 -0.34 317.74 -0.21 C 317.74 -0.1 317.84 0 317.97 0 L 321.82 0 C 321.94 0 322.04 -0.1 322.04 -0.21 C 322.04 -0.34 321.97 -0.36 321.89 -0.43 C 321.3 -0.9 321.08 -2.23 321.08 -3.26 L 321.08 -6.54 C 321.08 -7.57 321.29 -8.9 321.87 -9.37 C 321.96 -9.44 322.03 -9.46 322.03 -9.59 C 322.03 -9.7 321.93 -9.8 321.8 -9.8 L 319.2 -9.8 C 318.54 -9.8 318 -9.41 317.76 -8.81 L 315.57 -3.14 L 313.24 -8.78 C 312.97 -9.41 312.4 -9.8 311.71 -9.8 L 309.41 -9.8 C 309.29 -9.8 309.19 -9.7 309.19 -9.59 C 309.19 -9.46 309.26 -9.44 309.34 -9.37 C 309.93 -8.9 310.16 -7.57 310.16 -6.54 Z M 332.25 -6.54 L 332.25 -3.26 C 332.25 -2.23 332.04 -0.9 331.45 -0.43 C 331.37 -0.36 331.3 -0.34 331.3 -0.21 C 331.3 -0.1 331.39 0 331.52 0 L 335.37 0 C 335.5 0 335.59 -0.1 335.59 -0.21 C 335.59 -0.34 335.52 -0.36 335.44 -0.43 C 334.85 -0.9 334.63 -2.23 334.63 -3.26 L 334.63 -6.54 C 334.63 -7.57 334.84 -8.9 335.43 -9.37 C 335.51 -9.44 335.58 -9.46 335.58 -9.59 C 335.58 -9.7 335.48 -9.8 335.36 -9.8 L 331.51 -9.8 C 331.38 -9.8 331.28 -9.7 331.28 -9.59 C 331.28 -9.46 331.35 -9.44 331.44 -9.37 C 332.02 -8.9 332.25 -7.57 332.25 -6.54 Z M 345.07 0 L 352.66 0 C 352.9 0 353.09 -0.2 353.09 -0.43 L 353.09 -2.03 C 353.09 -2.27 352.98 -2.44 352.84 -2.44 C 352.69 -2.44 352.66 -2.31 352.58 -2.16 C 352.02 -1.11 350.42 -0.7 349.17 -0.7 L 348.66 -0.7 C 348.33 -0.7 348.18 -1.9 348.18 -3 L 348.18 -6.54 C 348.18 -7.57 348.39 -8.9 348.98 -9.37 C 349.06 -9.44 349.13 -9.46 349.13 -9.59 C 349.13 -9.7 349.03 -9.8 348.91 -9.8 L 345.06 -9.8 C 344.93 -9.8 344.83 -9.7 344.83 -9.59 C 344.83 -9.46 344.9 -9.44 344.99 -9.37 C 345.58 -8.9 345.8 -7.57 345.8 -6.54 L 345.8 -3.26 C 345.8 -2.23 345.59 -0.9 345 -0.43 C 344.92 -0.36 344.85 -0.34 344.85 -0.21 C 344.85 -0.1 344.95 0 345.07 0 Z M 366.16 -4.2 L 366.16 -3.26 C 366.16 -2.23 365.95 -0.9 365.36 -0.43 C 365.27 -0.36 365.2 -0.34 365.2 -0.21 C 365.2 -0.1 365.3 0 365.43 0 L 369.28 0 C 369.4 0 369.5 -0.1 369.5 -0.21 C 369.5 -0.34 369.43 -0.36 369.35 -0.43 C 368.76 -0.9 368.54 -2.23 368.54 -3.26 L 368.54 -4.2 L 371.06 -8.4 C 371.32 -8.85 372.05 -9.35 372.47 -9.59 C 372.53 -9.62 372.57 -9.63 372.57 -9.7 C 372.57 -9.76 372.5 -9.8 372.41 -9.8 L 370.05 -9.8 C 369.92 -9.8 369.82 -9.7 369.82 -9.59 C 369.82 -9.46 369.89 -9.44 369.98 -9.37 C 370.57 -8.9 369.63 -7.88 369.1 -7 L 368.19 -5.49 L 367.28 -7 C 366.74 -7.9 365.81 -8.9 366.39 -9.37 C 366.48 -9.44 366.55 -9.46 366.55 -9.59 C 366.55 -9.7 366.45 -9.8 366.32 -9.8 L 362.28 -9.8 C 362.19 -9.8 362.12 -9.76 362.12 -9.7 C 362.12 -9.63 362.17 -9.62 362.22 -9.59 C 362.64 -9.35 363.37 -8.85 363.64 -8.4 Z M 393.32 0 L 400.9 0 C 401.14 0 401.34 -0.2 401.34 -0.43 L 401.34 -2.03 C 401.34 -2.27 401.23 -2.44 401.09 -2.44 C 400.93 -2.44 400.9 -2.31 400.82 -2.16 C 400.26 -1.11 398.66 -0.7 397.42 -0.7 L 396.9 -0.7 C 396.58 -0.7 396.42 -1.9 396.42 -3 L 396.42 -6.54 C 396.42 -7.57 396.63 -8.9 397.22 -9.37 C 397.31 -9.44 397.38 -9.46 397.38 -9.59 C 397.38 -9.7 397.28 -9.8 397.15 -9.8 L 393.3 -9.8 C 393.18 -9.8 393.08 -9.7 393.08 -9.59 C 393.08 -9.46 393.15 -9.44 393.23 -9.37 C 393.82 -8.9 394.04 -7.57 394.04 -6.54 L 394.04 -3.26 C 394.04 -2.23 393.83 -0.9 393.25 -0.43 C 393.16 -0.36 393.09 -0.34 393.09 -0.21 C 393.09 -0.1 393.19 0 393.32 0 Z M 411.54 -6.54 L 411.54 -3.26 C 411.54 -2.23 411.33 -0.9 410.75 -0.43 C 410.66 -0.36 410.59 -0.34 410.59 -0.21 C 410.59 -0.1 410.69 0 410.82 0 L 414.67 0 C 414.79 0 414.89 -0.1 414.89 -0.21 C 414.89 -0.34 414.82 -0.36 414.74 -0.43 C 414.15 -0.9 413.92 -2.23 413.92 -3.26 L 413.92 -6.54 C 413.92 -7.57 414.13 -8.9 414.72 -9.37 C 414.81 -9.44 414.88 -9.46 414.88 -9.59 C 414.88 -9.7 414.78 -9.8 414.65 -9.8 L 410.8 -9.8 C 410.68 -9.8 410.58 -9.7 410.58 -9.59 C 410.58 -9.46 410.65 -9.44 410.73 -9.37 C 411.32 -8.9 411.54 -7.57 411.54 -6.54 Z M 425.1 -6.54 L 425.1 -3.26 C 425.1 -2.23 424.89 -0.9 424.3 -0.43 C 424.21 -0.36 424.14 -0.34 424.14 -0.21 C 424.14 -0.1 424.24 0 424.37 0 L 428.15 0 C 428.26 0 428.34 -0.1 428.34 -0.21 C 428.34 -0.34 428.29 -0.36 428.2 -0.43 C 427.67 -0.9 427.48 -2.23 427.48 -3.26 L 427.48 -3.53 L 427.97 -4.19 C 429.18 -3.75 428.81 0.14 431.62 0.14 C 432.61 0.14 433.15 -0.6 433.15 -1.32 C 433.15 -2.03 432.71 -2.74 432 -2.74 C 431.38 -2.74 431.34 -2.3 430.93 -2.3 C 430.12 -2.3 429.51 -4.62 428.48 -4.89 L 430.98 -8.23 C 431.34 -8.74 432.35 -9.27 432.94 -9.53 C 433.02 -9.58 433.09 -9.6 433.09 -9.67 C 433.09 -9.74 432.99 -9.8 432.87 -9.8 L 430.28 -9.8 C 430.15 -9.8 430.05 -9.7 430.05 -9.59 C 430.05 -9.46 430.12 -9.44 430.21 -9.37 C 430.79 -8.9 429.69 -8.01 429.07 -7.18 L 427.48 -5.04 L 427.48 -6.54 C 427.48 -7.57 427.67 -8.9 428.19 -9.37 C 428.27 -9.44 428.33 -9.46 428.33 -9.59 C 428.33 -9.7 428.25 -9.8 428.13 -9.8 L 424.35 -9.8 C 424.23 -9.8 424.13 -9.7 424.13 -9.59 C 424.13 -9.46 424.2 -9.44 424.28 -9.37 C 424.87 -8.9 425.1 -7.57 425.1 -6.54 Z M 442.62 0 L 450.63 0 C 450.87 0 451.07 -0.2 451.07 -0.43 L 451.07 -2.03 C 451.07 -2.27 450.95 -2.44 450.81 -2.44 C 450.66 -2.44 450.63 -2.31 450.55 -2.16 C 449.99 -1.11 448.39 -0.7 447.15 -0.7 L 446.21 -0.7 C 445.89 -0.7 445.73 -1.9 445.73 -3 L 445.73 -4.55 L 446.73 -4.55 C 447.36 -4.55 448.15 -4.37 448.42 -3.84 C 448.46 -3.75 448.49 -3.7 448.56 -3.7 C 448.63 -3.7 448.69 -3.78 448.69 -3.89 L 448.69 -5.78 C 448.69 -5.89 448.63 -5.98 448.56 -5.98 C 448.49 -5.98 448.46 -5.92 448.42 -5.84 C 448.15 -5.31 447.36 -5.11 446.73 -5.11 L 445.73 -5.11 L 445.73 -6.8 C 445.73 -7.9 445.89 -9.1 446.21 -9.1 C 448.6 -9.1 448.36 -7.18 449.5 -7.18 C 450.3 -7.18 450.93 -7.77 450.93 -8.5 C 450.93 -9.21 450.3 -9.8 449.5 -9.8 L 442.61 -9.8 C 442.48 -9.8 442.39 -9.7 442.39 -9.59 C 442.39 -9.46 442.46 -9.44 442.54 -9.37 C 443.13 -8.9 443.35 -7.57 443.35 -6.54 L 443.35 -3.26 C 443.35 -2.23 443.14 -0.9 442.55 -0.43 C 442.47 -0.36 442.4 -0.34 442.4 -0.21 C 442.4 -0.1 442.5 0 442.62 0 Z M 476.73 0.14 C 479.67 0.14 481.61 -1.68 481.61 -4.91 C 481.61 -7.92 479.84 -9.94 476.73 -9.94 C 473.76 -9.94 471.79 -8.12 471.79 -4.91 C 471.79 -1.88 473.56 0.14 476.73 0.14 Z M 476.71 -0.57 C 475.26 -0.57 474.45 -2.31 474.45 -4.91 C 474.45 -7.66 475.36 -9.23 476.71 -9.23 C 478.14 -9.23 478.95 -7.49 478.95 -4.91 C 478.95 -2.14 478.07 -0.57 476.71 -0.57 Z M 496.02 0.14 C 498.33 0.14 500.22 -1.37 500.22 -3.57 L 500.22 -6.54 C 500.22 -7.57 500.43 -8.9 501.02 -9.37 C 501.1 -9.44 501.17 -9.46 501.17 -9.59 C 501.17 -9.7 501.07 -9.8 500.95 -9.8 L 497.17 -9.8 C 497.06 -9.8 496.97 -9.7 496.97 -9.59 C 496.97 -9.46 497.03 -9.44 497.11 -9.37 C 497.64 -8.9 497.84 -7.57 497.84 -6.54 L 497.84 -2.44 C 497.84 -1.25 497.03 -0.56 496.02 -0.56 C 495.01 -0.56 494.2 -1.25 494.2 -2.44 L 494.2 -6.54 C 494.2 -7.57 494.4 -8.9 494.91 -9.37 C 495 -9.44 495.05 -9.46 495.05 -9.59 C 495.05 -9.7 494.97 -9.8 494.86 -9.8 L 491.08 -9.8 C 490.95 -9.8 490.85 -9.7 490.85 -9.59 C 490.85 -9.46 490.92 -9.44 491.01 -9.37 C 491.6 -8.9 491.82 -7.57 491.82 -6.54 L 491.82 -3.57 C 491.82 -1.37 493.71 0.14 496.02 0.14 Z M 510.65 0 L 514.43 0 C 514.54 0 514.63 -0.1 514.63 -0.21 C 514.63 -0.34 514.57 -0.36 514.49 -0.43 C 513.95 -0.9 513.76 -2.23 513.76 -3.26 L 513.76 -4.21 L 513.87 -4.21 L 514.14 -4.21 C 515.49 -3.98 515 0.14 517.9 0.14 C 518.9 0.14 519.43 -0.6 519.43 -1.32 C 519.43 -2.03 518.99 -2.74 518.28 -2.74 C 517.66 -2.74 517.62 -2.3 517.22 -2.3 C 516.6 -2.3 516.11 -3.6 515.48 -4.35 C 517.36 -4.72 518.31 -5.75 518.31 -7 C 518.31 -8.54 516.84 -9.8 514.15 -9.8 L 510.64 -9.8 C 510.51 -9.8 510.41 -9.7 510.41 -9.59 C 510.41 -9.46 510.48 -9.44 510.57 -9.37 C 511.15 -8.9 511.38 -7.57 511.38 -6.54 L 511.38 -3.26 C 511.38 -2.23 511.17 -0.9 510.58 -0.43 C 510.5 -0.36 510.43 -0.34 510.43 -0.21 C 510.43 -0.1 510.52 0 510.65 0 Z M 513.76 -6.8 C 513.76 -7.9 513.91 -9.1 514.23 -9.1 C 515.4 -9.1 515.65 -8.13 515.65 -7 C 515.65 -5.87 515.23 -4.91 513.87 -4.91 L 513.76 -4.91 Z M 545.09 0.14 C 548.03 0.14 549.98 -1.68 549.98 -4.91 C 549.98 -7.92 548.2 -9.94 545.09 -9.94 C 542.12 -9.94 540.15 -8.12 540.15 -4.91 C 540.15 -1.88 541.93 0.14 545.09 0.14 Z M 545.08 -0.57 C 543.62 -0.57 542.81 -2.31 542.81 -4.91 C 542.81 -7.66 543.72 -9.23 545.08 -9.23 C 546.5 -9.23 547.32 -7.49 547.32 -4.91 C 547.32 -2.14 546.43 -0.57 545.08 -0.57 Z M 559.23 -7.97 L 562.07 -0.2 C 562.16 0.01 562.34 0.14 562.56 0.14 L 562.95 0.14 C 563.18 0.14 563.36 0.01 563.44 -0.2 L 565.63 -6.16 L 567.81 -0.2 C 567.9 0.01 568.08 0.14 568.3 0.14 L 568.69 0.14 C 568.92 0.14 569.1 0.01 569.18 -0.2 L 572.03 -7.97 C 572.24 -8.54 572.85 -9.27 573.26 -9.53 C 573.31 -9.58 573.37 -9.6 573.37 -9.67 C 573.37 -9.74 573.3 -9.8 573.2 -9.8 L 570.91 -9.8 C 570.79 -9.8 570.71 -9.7 570.71 -9.59 C 570.71 -9.46 570.77 -9.44 570.85 -9.37 C 571.38 -8.9 570.81 -7.71 570.46 -6.73 L 569.27 -3.49 L 568.08 -6.73 C 567.71 -7.71 567.15 -8.9 567.67 -9.37 C 567.76 -9.44 567.81 -9.46 567.81 -9.59 C 567.81 -9.7 567.73 -9.8 567.62 -9.8 L 563.78 -9.8 C 563.7 -9.8 563.63 -9.74 563.63 -9.67 C 563.63 -9.6 563.67 -9.58 563.72 -9.53 C 564.14 -9.27 564.76 -8.54 564.97 -7.97 L 565.07 -7.7 L 563.53 -3.49 L 562.34 -6.73 C 561.97 -7.71 561.41 -8.9 561.93 -9.37 C 562.02 -9.44 562.07 -9.46 562.07 -9.59 C 562.07 -9.7 561.99 -9.8 561.88 -9.8 L 558.04 -9.8 C 557.96 -9.8 557.89 -9.74 557.89 -9.67 C 557.89 -9.6 557.93 -9.58 557.98 -9.53 C 558.4 -9.27 559.02 -8.54 559.23 -7.97 Z M 583.37 -6.54 L 583.37 -3.26 C 583.37 -2.23 583.16 -0.9 582.57 -0.43 C 582.48 -0.36 582.41 -0.34 582.41 -0.21 C 582.41 -0.1 582.51 0 582.64 0 L 585.02 0 C 585.13 0 585.21 -0.1 585.21 -0.21 C 585.21 -0.34 585.16 -0.36 585.07 -0.43 C 584.54 -0.9 584.35 -2.23 584.35 -3.26 L 584.35 -7.29 L 588.36 -0.76 C 588.66 -0.27 589.16 0 589.72 0 L 591.81 0 C 591.93 0 592.03 -0.1 592.03 -0.21 C 592.03 -0.34 591.96 -0.36 591.88 -0.43 C 591.29 -0.9 591.07 -2.23 591.07 -3.26 L 591.07 -6.54 C 591.07 -7.57 591.28 -8.9 591.86 -9.37 C 591.95 -9.44 592.02 -9.46 592.02 -9.59 C 592.02 -9.7 591.92 -9.8 591.79 -9.8 L 589.41 -9.8 C 589.3 -9.8 589.22 -9.7 589.22 -9.59 C 589.22 -9.46 589.27 -9.44 589.36 -9.37 C 589.89 -8.9 590.09 -7.57 590.09 -6.54 L 590.09 -2.74 L 586.21 -9.04 C 585.91 -9.53 585.41 -9.8 584.85 -9.8 L 582.62 -9.8 C 582.5 -9.8 582.4 -9.7 582.4 -9.59 C 582.4 -9.46 582.47 -9.44 582.55 -9.37 C 583.14 -8.9 583.37 -7.57 583.37 -6.54 Z" stroke-linecap="round" />
</g>
</g>
</g>
<g transform="matrix(2.163425724395803 0 0 2.163425724395803 640.0727573890359 494.5534069298705)" id="text-logo"  >
<g style=""  paint-order="stroke"   >
		<g transform="matrix(1 0 0 1 5.684342e-14 0)" id="text-logo-path-0"  >
<path style="stroke: none; stroke-width: 0; stroke-dasharray: none; stroke-linecap: butt; stroke-dashoffset: 0; stroke-linejoin: miter; stroke-miterlimit: 4; fill: rgb(251,200,239); fill-rule: nonzero; opacity: 1;"  paint-order="stroke"  transform=" translate(-279.305, 10.251677264653154)" d="M 16 -1.76 C 11.52 -1.76 9.03 -7.1 9.03 -15.09 C 9.03 -23.52 11.83 -28.34 16 -28.34 C 20.38 -28.34 22.88 -23.01 22.88 -15.09 C 22.88 -6.58 20.17 -1.76 16 -1.76 Z M 0.86 -15.09 C 0.86 -7.01 4.99 -1.29 12.34 0.09 L 14.66 0.69 C 18.53 1.72 21.97 12.17 29.97 9.63 C 32.85 8.77 33.71 6.11 33.07 3.96 C 32.42 1.89 30.49 0.17 28.42 0.86 C 26.57 1.42 26.88 2.75 25.71 3.14 C 24.25 3.61 21.63 1.72 19.05 0.22 C 26.36 -0.9 31.05 -6.32 31.05 -15.09 C 31.05 -24.34 25.59 -30.53 16.04 -30.53 C 6.92 -30.53 0.86 -24.94 0.86 -15.09 Z M 58.01 0.43 C 65.1 0.43 70.91 -4.21 70.91 -10.97 L 70.91 -20.08 C 70.91 -23.26 71.55 -27.35 73.36 -28.77 C 73.62 -28.98 73.83 -29.07 73.83 -29.46 C 73.83 -29.8 73.53 -30.1 73.14 -30.1 L 61.53 -30.1 C 61.19 -30.1 60.93 -29.8 60.93 -29.46 C 60.93 -29.07 61.1 -28.98 61.36 -28.77 C 63 -27.35 63.6 -23.26 63.6 -20.08 L 63.6 -7.48 C 63.6 -3.83 61.1 -1.72 58.01 -1.72 C 54.91 -1.72 52.42 -3.83 52.42 -7.48 L 52.42 -20.08 C 52.42 -23.26 53.02 -27.35 54.61 -28.77 C 54.87 -28.98 55.04 -29.07 55.04 -29.46 C 55.04 -29.8 54.78 -30.1 54.44 -30.1 L 42.83 -30.1 C 42.44 -30.1 42.14 -29.8 42.14 -29.46 C 42.14 -29.07 42.36 -28.98 42.61 -28.77 C 44.42 -27.35 45.11 -23.26 45.11 -20.08 L 45.11 -10.97 C 45.11 -4.21 50.91 0.43 58.01 0.43 Z M 85.57 0 L 110.17 0 C 110.9 0 111.5 -0.6 111.5 -1.33 L 111.5 -6.24 C 111.5 -6.97 111.16 -7.48 110.72 -7.48 C 110.25 -7.48 110.17 -7.1 109.91 -6.62 C 108.19 -3.4 103.29 -2.15 99.46 -2.15 L 96.58 -2.15 C 95.59 -2.15 95.12 -5.85 95.12 -9.2 L 95.12 -13.98 L 98.17 -13.98 C 100.1 -13.98 102.56 -13.42 103.37 -11.78 C 103.5 -11.52 103.59 -11.35 103.8 -11.35 C 104.02 -11.35 104.19 -11.61 104.19 -11.95 L 104.19 -17.76 C 104.19 -18.1 104.02 -18.36 103.8 -18.36 C 103.59 -18.36 103.5 -18.19 103.37 -17.93 C 102.56 -16.3 100.1 -15.7 98.17 -15.7 L 95.12 -15.7 L 95.12 -20.9 C 95.12 -24.25 95.59 -27.95 96.58 -27.95 C 103.93 -27.95 103.2 -22.06 106.68 -22.06 C 109.13 -22.06 111.07 -23.87 111.07 -26.1 C 111.07 -28.29 109.13 -30.1 106.68 -30.1 L 85.53 -30.1 C 85.14 -30.1 84.84 -29.8 84.84 -29.46 C 84.84 -29.07 85.05 -28.98 85.31 -28.77 C 87.12 -27.35 87.81 -23.26 87.81 -20.08 L 87.81 -10.02 C 87.81 -6.84 87.16 -2.75 85.36 -1.33 C 85.1 -1.12 84.88 -1.03 84.88 -0.65 C 84.88 -0.3 85.18 0 85.57 0 Z M 123.24 0 L 147.83 0 C 148.56 0 149.17 -0.6 149.17 -1.33 L 149.17 -6.24 C 149.17 -6.97 148.82 -7.48 148.39 -7.48 C 147.92 -7.48 147.83 -7.1 147.58 -6.62 C 145.86 -3.4 140.95 -2.15 137.13 -2.15 L 134.25 -2.15 C 133.26 -2.15 132.78 -5.85 132.78 -9.2 L 132.78 -13.98 L 135.84 -13.98 C 137.77 -13.98 140.22 -13.42 141.04 -11.78 C 141.17 -11.52 141.25 -11.35 141.47 -11.35 C 141.69 -11.35 141.86 -11.61 141.86 -11.95 L 141.86 -17.76 C 141.86 -18.1 141.69 -18.36 141.47 -18.36 C 141.25 -18.36 141.17 -18.19 141.04 -17.93 C 140.22 -16.3 137.77 -15.7 135.84 -15.7 L 132.78 -15.7 L 132.78 -20.9 C 132.78 -24.25 133.26 -27.95 134.25 -27.95 C 141.6 -27.95 140.87 -22.06 144.35 -22.06 C 146.8 -22.06 148.74 -23.87 148.74 -26.1 C 148.74 -28.29 146.8 -30.1 144.35 -30.1 L 123.2 -30.1 C 122.81 -30.1 122.51 -29.8 122.51 -29.46 C 122.51 -29.07 122.72 -28.98 122.98 -28.77 C 124.79 -27.35 125.47 -23.26 125.47 -20.08 L 125.47 -10.02 C 125.47 -6.84 124.83 -2.75 123.02 -1.33 C 122.77 -1.12 122.55 -1.03 122.55 -0.65 C 122.55 -0.3 122.85 0 123.24 0 Z M 163.14 -20.08 L 163.14 -10.02 C 163.14 -6.84 162.5 -2.75 160.69 -1.33 C 160.43 -1.12 160.22 -1.03 160.22 -0.65 C 160.22 -0.3 160.52 0 160.91 0 L 168.22 0 C 168.56 0 168.82 -0.3 168.82 -0.65 C 168.82 -1.03 168.65 -1.12 168.39 -1.33 C 166.75 -2.75 166.15 -6.84 166.15 -10.02 L 166.15 -22.4 L 178.49 -2.32 C 179.4 -0.82 180.94 0 182.66 0 L 189.07 0 C 189.46 0 189.76 -0.3 189.76 -0.65 C 189.76 -1.03 189.54 -1.12 189.29 -1.33 C 187.48 -2.75 186.79 -6.84 186.79 -10.02 L 186.79 -20.08 C 186.79 -23.26 187.44 -27.35 189.24 -28.77 C 189.5 -28.98 189.72 -29.07 189.72 -29.46 C 189.72 -29.8 189.42 -30.1 189.03 -30.1 L 181.72 -30.1 C 181.37 -30.1 181.12 -29.8 181.12 -29.46 C 181.12 -29.07 181.29 -28.98 181.55 -28.77 C 183.18 -27.35 183.78 -23.26 183.78 -20.08 L 183.78 -8.43 L 171.87 -27.78 C 170.97 -29.28 169.42 -30.1 167.7 -30.1 L 160.86 -30.1 C 160.48 -30.1 160.18 -29.8 160.18 -29.46 C 160.18 -29.07 160.39 -28.98 160.65 -28.77 C 162.45 -27.35 163.14 -23.26 163.14 -20.08 Z M 221.62 -20.08 L 221.62 -10.02 C 221.62 -6.84 220.98 -2.75 219.17 -1.33 C 218.91 -1.12 218.7 -1.03 218.7 -0.65 C 218.7 -0.3 219 0 219.39 0 L 231 0 C 231.34 0 231.6 -0.3 231.6 -0.65 C 231.6 -1.03 231.43 -1.12 231.17 -1.33 C 229.53 -2.75 228.93 -6.84 228.93 -10.02 L 228.93 -13.98 L 240.11 -13.98 L 240.11 -10.02 C 240.11 -6.84 239.55 -2.75 237.92 -1.33 C 237.66 -1.12 237.49 -1.03 237.49 -0.65 C 237.49 -0.3 237.75 0 238.09 0 L 249.7 0 C 250.09 0 250.39 -0.3 250.39 -0.65 C 250.39 -1.03 250.17 -1.12 249.92 -1.33 C 248.11 -2.75 247.42 -6.84 247.42 -10.02 L 247.42 -20.08 C 247.42 -23.26 248.07 -27.35 249.87 -28.77 C 250.13 -28.98 250.35 -29.07 250.35 -29.46 C 250.35 -29.8 250.05 -30.1 249.66 -30.1 L 238.05 -30.1 C 237.7 -30.1 237.45 -29.8 237.45 -29.46 C 237.45 -29.07 237.62 -28.98 237.88 -28.77 C 239.51 -27.35 240.11 -23.26 240.11 -20.08 L 240.11 -15.7 L 228.93 -15.7 L 228.93 -20.08 C 228.93 -23.26 229.53 -27.35 231.13 -28.77 C 231.38 -28.98 231.56 -29.07 231.56 -29.46 C 231.56 -29.8 231.3 -30.1 230.95 -30.1 L 219.34 -30.1 C 218.96 -30.1 218.66 -29.8 218.66 -29.46 C 218.66 -29.07 218.87 -28.98 219.13 -28.77 C 220.93 -27.35 221.62 -23.26 221.62 -20.08 Z M 276.58 0.43 C 285.61 0.43 291.58 -5.16 291.58 -15.09 C 291.58 -24.34 286.12 -30.53 276.58 -30.53 C 267.46 -30.53 261.4 -24.94 261.4 -15.09 C 261.4 -5.76 266.86 0.43 276.58 0.43 Z M 276.53 -1.76 C 272.06 -1.76 269.57 -7.1 269.57 -15.09 C 269.57 -23.52 272.36 -28.34 276.53 -28.34 C 280.92 -28.34 283.41 -23.01 283.41 -15.09 C 283.41 -6.58 280.7 -1.76 276.53 -1.76 Z M 305.56 -20.08 L 305.56 -10.02 C 305.56 -6.84 304.91 -2.75 303.11 -1.33 C 302.85 -1.12 302.63 -1.03 302.63 -0.65 C 302.63 -0.3 302.94 0 303.32 0 L 310.63 0 C 310.98 0 311.23 -0.3 311.23 -0.65 C 311.23 -1.03 311.06 -1.12 310.8 -1.33 C 309.17 -2.75 308.57 -6.84 308.57 -10.02 L 308.57 -22.83 L 317.64 -0.99 C 317.9 -0.39 318.42 0 319.06 0 L 320.82 0 C 321.47 0 322.07 -0.43 322.29 -1.03 L 331.79 -25.63 L 331.79 -10.02 C 331.79 -6.84 331.14 -2.75 329.34 -1.33 C 329.08 -1.12 328.86 -1.03 328.86 -0.65 C 328.86 -0.3 329.17 0 329.55 0 L 341.38 0 C 341.76 0 342.07 -0.3 342.07 -0.65 C 342.07 -1.03 341.85 -1.12 341.59 -1.33 C 339.79 -2.75 339.1 -6.84 339.1 -10.02 L 339.1 -20.08 C 339.1 -23.26 339.74 -27.35 341.55 -28.77 C 341.81 -28.98 342.02 -29.07 342.02 -29.46 C 342.02 -29.8 341.72 -30.1 341.33 -30.1 L 333.34 -30.1 C 331.32 -30.1 329.64 -28.9 328.91 -27.05 L 322.2 -9.63 L 315.02 -26.96 C 314.2 -28.9 312.44 -30.1 310.33 -30.1 L 303.28 -30.1 C 302.89 -30.1 302.59 -29.8 302.59 -29.46 C 302.59 -29.07 302.81 -28.98 303.06 -28.77 C 304.87 -27.35 305.56 -23.26 305.56 -20.08 Z M 353.8 0 L 378.4 0 C 379.13 0 379.73 -0.6 379.73 -1.33 L 379.73 -6.24 C 379.73 -6.97 379.39 -7.48 378.96 -7.48 C 378.49 -7.48 378.4 -7.1 378.14 -6.62 C 376.42 -3.4 371.52 -2.15 367.69 -2.15 L 364.81 -2.15 C 363.82 -2.15 363.35 -5.85 363.35 -9.2 L 363.35 -13.98 L 366.4 -13.98 C 368.34 -13.98 370.79 -13.42 371.61 -11.78 C 371.74 -11.52 371.82 -11.35 372.04 -11.35 C 372.25 -11.35 372.42 -11.61 372.42 -11.95 L 372.42 -17.76 C 372.42 -18.1 372.25 -18.36 372.04 -18.36 C 371.82 -18.36 371.74 -18.19 371.61 -17.93 C 370.79 -16.3 368.34 -15.7 366.4 -15.7 L 363.35 -15.7 L 363.35 -20.9 C 363.35 -24.25 363.82 -27.95 364.81 -27.95 C 372.17 -27.95 371.43 -22.06 374.92 -22.06 C 377.37 -22.06 379.3 -23.87 379.3 -26.1 C 379.3 -28.29 377.37 -30.1 374.92 -30.1 L 353.76 -30.1 C 353.37 -30.1 353.07 -29.8 353.07 -29.46 C 353.07 -29.07 353.29 -28.98 353.55 -28.77 C 355.35 -27.35 356.04 -23.26 356.04 -20.08 L 356.04 -10.02 C 356.04 -6.84 355.4 -2.75 353.59 -1.33 C 353.33 -1.12 353.12 -1.03 353.12 -0.65 C 353.12 -0.3 353.42 0 353.8 0 Z M 427.42 -23.91 C 427.42 -21.72 429.31 -20.25 431.51 -20.25 C 433.57 -20.25 435.46 -21.63 435.46 -24.34 C 435.46 -26.92 432.67 -30.53 423.81 -30.53 C 414.69 -30.53 408.63 -24.94 408.63 -15.09 C 408.63 -5.76 414.09 0.43 423.81 0.43 C 429.83 0.43 434.47 -2.06 436.92 -6.67 C 437.14 -7.05 437.01 -7.48 436.62 -7.74 C 436.24 -7.96 435.76 -7.78 435.5 -7.35 C 432.62 -2.75 428.37 -1.81 425.79 -1.81 C 420.41 -1.81 417.53 -6.54 416.84 -14.49 C 416.07 -22.88 419.29 -28.29 424.32 -28.29 C 429.61 -28.29 427.42 -26.1 427.42 -23.91 Z M 469.56 0 L 480.91 0 C 481.17 0 481.39 -0.17 481.39 -0.39 C 481.39 -0.6 481.26 -0.69 481.08 -0.82 C 479.79 -1.63 477.9 -3.83 477.21 -5.63 L 469.47 -26.49 C 468.66 -28.72 466.64 -30.1 464.27 -30.1 L 458.34 -30.1 C 457.99 -30.1 457.74 -29.84 457.74 -29.54 C 457.74 -29.15 457.91 -29.11 458.17 -28.9 C 458.77 -28.42 459.41 -27.78 460.1 -27 L 452.19 -5.63 C 451.5 -3.83 449.65 -1.63 448.36 -0.82 C 448.19 -0.69 448.02 -0.6 448.02 -0.39 C 448.02 -0.17 448.23 0 448.53 0 L 455.59 0 C 455.93 0 456.19 -0.3 456.19 -0.65 C 456.19 -1.03 456.02 -1.12 455.76 -1.33 C 454.12 -2.75 455.89 -6.41 457 -9.37 L 457.13 -9.68 L 467.97 -9.68 L 468.1 -9.37 C 469.22 -6.41 471.02 -2.75 469.39 -1.33 C 469.13 -1.12 468.96 -1.03 468.96 -0.65 C 468.96 -0.3 469.22 0 469.56 0 Z M 457.74 -11.4 L 462.42 -23.91 C 462.85 -23.18 463.28 -22.32 463.54 -21.63 L 467.37 -11.4 Z M 493.12 0 L 504.73 0 C 505.08 0 505.34 -0.3 505.34 -0.65 C 505.34 -1.03 505.16 -1.12 504.91 -1.33 C 503.27 -2.75 502.67 -6.84 502.67 -10.02 L 502.67 -12.94 L 503.01 -12.94 L 503.83 -12.94 C 508 -12.21 506.5 0.43 515.4 0.43 C 518.45 0.43 520.09 -1.85 520.09 -4.04 C 520.09 -6.24 518.75 -8.43 516.56 -8.43 C 514.67 -8.43 514.54 -7.05 513.29 -7.05 C 511.4 -7.05 509.89 -11.05 507.96 -13.37 C 513.72 -14.49 516.65 -17.67 516.65 -21.5 C 516.65 -26.23 512.13 -30.1 503.87 -30.1 L 493.08 -30.1 C 492.69 -30.1 492.39 -29.8 492.39 -29.46 C 492.39 -29.07 492.61 -28.98 492.87 -28.77 C 494.67 -27.35 495.36 -23.26 495.36 -20.08 L 495.36 -10.02 C 495.36 -6.84 494.72 -2.75 492.91 -1.33 C 492.65 -1.12 492.44 -1.03 492.44 -0.65 C 492.44 -0.3 492.74 0 493.12 0 Z M 502.67 -20.9 C 502.67 -24.25 503.14 -27.95 504.13 -27.95 C 507.7 -27.95 508.48 -24.98 508.48 -21.5 C 508.48 -18.02 507.19 -15.09 503.01 -15.09 L 502.67 -15.09 Z M 531.82 0 L 556.42 0 C 557.15 0 557.75 -0.6 557.75 -1.33 L 557.75 -6.24 C 557.75 -6.97 557.41 -7.48 556.98 -7.48 C 556.51 -7.48 556.42 -7.1 556.16 -6.62 C 554.44 -3.4 549.54 -2.15 545.71 -2.15 L 542.83 -2.15 C 541.84 -2.15 541.37 -5.85 541.37 -9.2 L 541.37 -13.98 L 544.42 -13.98 C 546.36 -13.98 548.81 -13.42 549.63 -11.78 C 549.76 -11.52 549.84 -11.35 550.06 -11.35 C 550.27 -11.35 550.44 -11.61 550.44 -11.95 L 550.44 -17.76 C 550.44 -18.1 550.27 -18.36 550.06 -18.36 C 549.84 -18.36 549.76 -18.19 549.63 -17.93 C 548.81 -16.3 546.36 -15.7 544.42 -15.7 L 541.37 -15.7 L 541.37 -20.9 C 541.37 -24.25 541.84 -27.95 542.83 -27.95 C 550.19 -27.95 549.45 -22.06 552.94 -22.06 C 555.39 -22.06 557.32 -23.87 557.32 -26.1 C 557.32 -28.29 555.39 -30.1 552.94 -30.1 L 531.78 -30.1 C 531.39 -30.1 531.09 -29.8 531.09 -29.46 C 531.09 -29.07 531.31 -28.98 531.57 -28.77 C 533.37 -27.35 534.06 -23.26 534.06 -20.08 L 534.06 -10.02 C 534.06 -6.84 533.42 -2.75 531.61 -1.33 C 531.35 -1.12 531.14 -1.03 531.14 -0.65 C 531.14 -0.3 531.44 0 531.82 0 Z" stroke-linecap="round" />
</g>
</g>
</g>
</svg>